<svg width="1170pt" height="191pt" viewBox="0.00 0.00 1169.81 191.00" xmlns="http://www.w3.org/2000/svg" xmlns:xlink="http://www.w3.org/1999/xlink">
<g id="graph0" class="graph" transform="scale(1 1) rotate(0) translate(4 187)">
<title>hierarchy</title>
<polygon fill="#ffffff" stroke="transparent" points="-4,4 -4,-187 1165.8072,-187 1165.8072,4 -4,4"></polygon>
<!-- SSBBrowserCore -->
<g id="node1" class="node">
<title>SSBBrowserCore</title>
<polygon fill="none" stroke="#000000" points="516.2714,-146.5 516.2714,-182.5 631.8086,-182.5 631.8086,-146.5 516.2714,-146.5"></polygon>
<text text-anchor="middle" x="574.04" y="-160.3" font-family="Times,serif" font-size="14.00" fill="#000000">SSBBrowserCore</text>
</g>
<!-- Network -->
<g id="node6" class="node">
<title>Network</title>
<polygon fill="none" stroke="#000000" points="81.5505,-73.5 81.5505,-109.5 146.5295,-109.5 146.5295,-73.5 81.5505,-73.5"></polygon>
<text text-anchor="middle" x="114.04" y="-87.3" font-family="Times,serif" font-size="14.00" fill="#000000">Network</text>
</g>
<!-- SSBBrowserCore&#45;&gt;Network -->
<g id="edge1" class="edge">
<title>SSBBrowserCore-&gt;Network</title>
<path fill="none" stroke="#000000" d="M516.2465,-155.3284C422.5276,-140.4556 239.5516,-111.4182 156.6631,-98.2641"></path>
<polygon fill="#000000" stroke="#000000" points="157.0168,-94.7765 146.5918,-96.6658 155.9196,-101.69 157.0168,-94.7765"></polygon>
</g>
<!-- Connections -->
<g id="node7" class="node">
<title>Connections</title>
<polygon fill="none" stroke="#000000" points="278.0442,-73.5 278.0442,-109.5 364.0358,-109.5 364.0358,-73.5 278.0442,-73.5"></polygon>
<text text-anchor="middle" x="321.04" y="-87.3" font-family="Times,serif" font-size="14.00" fill="#000000">Connections</text>
</g>
<!-- SSBBrowserCore&#45;&gt;Connections -->
<g id="edge2" class="edge">
<title>SSBBrowserCore-&gt;Connections</title>
<path fill="none" stroke="#000000" d="M515.9967,-147.7523C473.1828,-135.3989 415.3977,-118.7257 373.8703,-106.7435"></path>
<polygon fill="#000000" stroke="#000000" points="374.7906,-103.3664 364.2123,-103.9568 372.85,-110.092 374.7906,-103.3664"></polygon>
</g>
<!-- Sync -->
<g id="node8" class="node">
<title>Sync</title>
<polygon fill="none" stroke="#000000" points="547.04,-73.5 547.04,-109.5 601.04,-109.5 601.04,-73.5 547.04,-73.5"></polygon>
<text text-anchor="middle" x="574.0386" y="-87.3" font-family="Times,serif" font-size="14.00" fill="#000000">Sync</text>
</g>
<!-- SSBBrowserCore&#45;&gt;Sync -->
<g id="edge3" class="edge">
<title>SSBBrowserCore-&gt;Sync</title>
<path fill="none" stroke="#000000" d="M574.04,-146.4551C574.04,-138.3828 574.04,-128.6764 574.04,-119.6817"></path>
<polygon fill="#000000" stroke="#000000" points="577.5401,-119.5903 574.04,-109.5904 570.5401,-119.5904 577.5401,-119.5903"></polygon>
</g>
<!-- DB -->
<g id="node9" class="node">
<title>DB</title>
<polygon fill="none" stroke="#000000" points="799.04,-73.5 799.04,-109.5 853.04,-109.5 853.04,-73.5 799.04,-73.5"></polygon>
<text text-anchor="middle" x="825.7616" y="-87.3" font-family="Times,serif" font-size="14.00" fill="#000000">DB</text>
</g>
<!-- SSBBrowserCore&#45;&gt;DB -->
<g id="edge4" class="edge">
<title>SSBBrowserCore-&gt;DB</title>
<path fill="none" stroke="#000000" d="M631.8539,-147.7523C680.3153,-133.7139 748.0341,-114.097 789.3614,-102.1251"></path>
<polygon fill="#000000" stroke="#000000" points="790.389,-105.4715 799.0202,-99.3272 788.4412,-98.7479 790.389,-105.4715"></polygon>
</g>
<!-- Feed -->
<g id="node10" class="node">
<title>Feed</title>
<polygon fill="none" stroke="#000000" points="925.04,-73.5 925.04,-109.5 979.04,-109.5 979.04,-73.5 925.04,-73.5"></polygon>
<text text-anchor="middle" x="951.6459" y="-87.3" font-family="Times,serif" font-size="14.00" fill="#000000">Feed</text>
</g>
<!-- SSBBrowserCore&#45;&gt;Feed -->
<g id="edge5" class="edge">
<title>SSBBrowserCore-&gt;Feed</title>
<path fill="none" stroke="#000000" d="M631.9172,-156.5146C695.4069,-147.2848 800.115,-130.6778 889.04,-110 897.579,-108.0144 906.6732,-105.5522 915.2184,-103.079"></path>
<polygon fill="#000000" stroke="#000000" points="916.3392,-106.3973 924.9313,-100.1984 914.3489,-99.6862 916.3392,-106.3973"></polygon>
</g>
<!-- Validate -->
<g id="node2" class="node">
<title>Validate</title>
<polygon fill="none" stroke="#000000" points="854.3289,-146.5 854.3289,-182.5 917.7511,-182.5 917.7511,-146.5 854.3289,-146.5"></polygon>
<text text-anchor="middle" x="886.04" y="-160.3" font-family="Times,serif" font-size="14.00" fill="#000000">Validate</text>
</g>
<!-- Keys -->
<g id="node3" class="node">
<title>Keys</title>
<polygon fill="none" stroke="#000000" points="990.04,-146.5 990.04,-182.5 1044.04,-182.5 1044.04,-146.5 990.04,-146.5"></polygon>
<text text-anchor="middle" x="1016.9229" y="-160.3" font-family="Times,serif" font-size="14.00" fill="#000000">Keys</text>
</g>
<!-- SecretStack -->
<g id="node4" class="node">
<title>SecretStack</title>
<polygon fill="none" stroke="#000000" points="0,-146.5 0,-182.5 82.08,-182.5 82.08,-146.5 0,-146.5"></polygon>
<text text-anchor="middle" x="41.04" y="-160.3" font-family="Times,serif" font-size="14.00" fill="#000000">SecretStack</text>
</g>
<!-- MuxRPC -->
<g id="node5" class="node">
<title>MuxRPC</title>
<polygon fill="none" stroke="#000000" points="153.5898,-146.5 153.5898,-182.5 222.4902,-182.5 222.4902,-146.5 153.5898,-146.5"></polygon>
<text text-anchor="middle" x="188.04" y="-160.3" font-family="Times,serif" font-size="14.00" fill="#000000">MuxRPC</text>
</g>
<!-- Network&#45;&gt;SecretStack -->
<g id="edge13" class="edge">
<title>Network-&gt;SecretStack</title>
<path fill="none" stroke="#000000" d="M95.9496,-109.5904C86.9932,-118.5468 76.0334,-129.5066 66.2674,-139.2726"></path>
<polygon fill="#000000" stroke="#000000" points="63.6812,-136.9091 59.0849,-146.4551 68.6309,-141.8588 63.6812,-136.9091"></polygon>
</g>
<!-- Network&#45;&gt;MuxRPC -->
<g id="edge14" class="edge">
<title>Network-&gt;MuxRPC</title>
<path fill="none" stroke="#000000" d="M132.3782,-109.5904C141.4573,-118.5468 152.5672,-129.5066 162.467,-139.2726"></path>
<polygon fill="#000000" stroke="#000000" points="160.1708,-141.9239 169.7479,-146.4551 165.0868,-136.9406 160.1708,-141.9239"></polygon>
</g>
<!-- SHS -->
<g id="node16" class="node">
<title>SHS</title>
<polygon fill="none" stroke="#000000" points="27.04,-.5 27.04,-36.5 81.04,-36.5 81.04,-.5 27.04,-.5"></polygon>
<text text-anchor="middle" x="53.8759" y="-14.3" font-family="Times,serif" font-size="14.00" fill="#000000">SHS</text>
</g>
<!-- Network&#45;&gt;SHS -->
<g id="edge15" class="edge">
<title>Network-&gt;SHS</title>
<path fill="none" stroke="#000000" d="M99.2085,-73.4551C91.9969,-64.6809 83.1983,-53.9759 75.289,-44.353"></path>
<polygon fill="#000000" stroke="#000000" points="77.9624,-42.0934 68.9088,-36.5904 72.5546,-46.5382 77.9624,-42.0934"></polygon>
</g>
<!-- SSBconn -->
<g id="node14" class="node">
<title>SSBconn</title>
<polygon fill="none" stroke="#000000" points="152.9818,-.5 152.9818,-36.5 221.0982,-36.5 221.0982,-.5 152.9818,-.5"></polygon>
<text text-anchor="middle" x="187.04" y="-14.3" font-family="Times,serif" font-size="14.00" fill="#000000">SSBconn</text>
</g>
<!-- Connections&#45;&gt;SSBconn -->
<g id="edge11" class="edge">
<title>Connections-&gt;SSBconn</title>
<path fill="none" stroke="#000000" d="M287.9164,-73.4551C270.1998,-63.8035 248.1947,-51.8156 229.2621,-41.5016"></path>
<polygon fill="#000000" stroke="#000000" points="230.7028,-38.3008 220.247,-36.5904 227.354,-44.4479 230.7028,-38.3008"></polygon>
</g>
<!-- Rooms -->
<g id="node15" class="node">
<title>Rooms</title>
<polygon fill="none" stroke="#000000" points="293.2041,-.5 293.2041,-36.5 348.8759,-36.5 348.8759,-.5 293.2041,-.5"></polygon>
<text text-anchor="middle" x="321.04" y="-14.3" font-family="Times,serif" font-size="14.00" fill="#000000">Rooms</text>
</g>
<!-- Connections&#45;&gt;Rooms -->
<g id="edge12" class="edge">
<title>Connections-&gt;Rooms</title>
<path fill="none" stroke="#000000" d="M321.04,-73.4551C321.04,-65.3828 321.04,-55.6764 321.04,-46.6817"></path>
<polygon fill="#000000" stroke="#000000" points="324.5401,-46.5903 321.04,-36.5904 317.5401,-46.5904 324.5401,-46.5903"></polygon>
</g>
<!-- Partial -->
<g id="node17" class="node">
<title>Partial</title>
<polygon fill="none" stroke="#000000" points="421.04,-.5 421.04,-36.5 475.04,-36.5 475.04,-.5 421.04,-.5"></polygon>
<text text-anchor="middle" x="447.8121" y="-14.3" font-family="Times,serif" font-size="14.00" fill="#000000">Partial</text>
</g>
<!-- Sync&#45;&gt;Partial -->
<g id="edge16" class="edge">
<title>Sync-&gt;Partial</title>
<path fill="none" stroke="#000000" d="M547.0098,-75.8397C528.6995,-65.2313 504.2928,-51.0909 484.2985,-39.5069"></path>
<polygon fill="#000000" stroke="#000000" points="485.8675,-36.371 475.4602,-34.3863 482.3583,-42.4279 485.8675,-36.371"></polygon>
</g>
<!-- EBT -->
<g id="node18" class="node">
<title>EBT</title>
<polygon fill="none" stroke="#000000" points="547.04,-.5 547.04,-36.5 601.04,-36.5 601.04,-.5 547.04,-.5"></polygon>
<text text-anchor="middle" x="573.7609" y="-14.3" font-family="Times,serif" font-size="14.00" fill="#000000">EBT</text>
</g>
<!-- Sync&#45;&gt;EBT -->
<g id="edge17" class="edge">
<title>Sync-&gt;EBT</title>
<path fill="none" stroke="#000000" d="M574.04,-73.4551C574.04,-65.3828 574.04,-55.6764 574.04,-46.6817"></path>
<polygon fill="#000000" stroke="#000000" points="577.5401,-46.5903 574.04,-36.5904 570.5401,-46.5904 577.5401,-46.5903"></polygon>
</g>
<!-- Blobs -->
<g id="node19" class="node">
<title>Blobs</title>
<polygon fill="none" stroke="#000000" points="673.04,-.5 673.04,-36.5 727.04,-36.5 727.04,-.5 673.04,-.5"></polygon>
<text text-anchor="middle" x="699.8759" y="-14.3" font-family="Times,serif" font-size="14.00" fill="#000000">Blobs</text>
</g>
<!-- Sync&#45;&gt;Blobs -->
<g id="edge18" class="edge">
<title>Sync-&gt;Blobs</title>
<path fill="none" stroke="#000000" d="M601.0702,-75.8397C619.3805,-65.2313 643.7872,-51.0909 663.7815,-39.5069"></path>
<polygon fill="#000000" stroke="#000000" points="665.7217,-42.4279 672.6198,-34.3863 662.2125,-36.371 665.7217,-42.4279"></polygon>
</g>
<!-- JITDB -->
<g id="node11" class="node">
<title>JITDB</title>
<polygon fill="none" stroke="#000000" points="798.9895,-.5 798.9895,-36.5 853.0905,-36.5 853.0905,-.5 798.9895,-.5"></polygon>
<text text-anchor="middle" x="826.04" y="-14.3" font-family="Times,serif" font-size="14.00" fill="#000000">JITDB</text>
</g>
<!-- DB&#45;&gt;JITDB -->
<g id="edge8" class="edge">
<title>DB-&gt;JITDB</title>
<path fill="none" stroke="#000000" d="M826.04,-73.4551C826.04,-65.3828 826.04,-55.6764 826.04,-46.6817"></path>
<polygon fill="#000000" stroke="#000000" points="829.5401,-46.5903 826.04,-36.5904 822.5401,-46.5904 829.5401,-46.5903"></polygon>
</g>
<!-- AsyncFlumelog -->
<g id="node12" class="node">
<title>AsyncFlumelog</title>
<polygon fill="none" stroke="#000000" points="925.3226,-.5 925.3226,-36.5 1030.7574,-36.5 1030.7574,-.5 925.3226,-.5"></polygon>
<text text-anchor="middle" x="978.04" y="-14.3" font-family="Times,serif" font-size="14.00" fill="#000000">AsyncFlumelog</text>
</g>
<!-- DB&#45;&gt;AsyncFlumelog -->
<g id="edge9" class="edge">
<title>DB-&gt;AsyncFlumelog</title>
<path fill="none" stroke="#000000" d="M853.2146,-78.4491C874.8894,-68.0394 905.7524,-53.2171 931.3662,-40.9157"></path>
<polygon fill="#000000" stroke="#000000" points="933.0395,-43.9949 940.5386,-36.5105 930.009,-37.6848 933.0395,-43.9949"></polygon>
</g>
<!-- Indexes -->
<g id="node13" class="node">
<title>Indexes</title>
<polygon fill="none" stroke="#000000" points="1102.2728,-.5 1102.2728,-36.5 1161.8072,-36.5 1161.8072,-.5 1102.2728,-.5"></polygon>
<text text-anchor="middle" x="1132.04" y="-14.3" font-family="Times,serif" font-size="14.00" fill="#000000">Indexes</text>
</g>
<!-- DB&#45;&gt;Indexes -->
<g id="edge10" class="edge">
<title>DB-&gt;Indexes</title>
<path fill="none" stroke="#000000" d="M853.1895,-82.9717C864.2514,-79.6426 877.1999,-75.93 889.04,-73 967.3896,-53.6115 988.6103,-56.0617 1067.04,-37 1075.2264,-35.0103 1083.9343,-32.6814 1092.2269,-30.36"></path>
<polygon fill="#000000" stroke="#000000" points="1093.4146,-33.661 1102.0733,-27.5555 1091.497,-26.9288 1093.4146,-33.661"></polygon>
</g>
<!-- Feed&#45;&gt;Validate -->
<g id="edge6" class="edge">
<title>Feed-&gt;Validate</title>
<path fill="none" stroke="#000000" d="M935.6843,-109.5904C927.6661,-118.459 917.872,-129.2919 909.1083,-138.985"></path>
<polygon fill="#000000" stroke="#000000" points="906.4649,-136.69 902.3546,-146.4551 911.6573,-141.3845 906.4649,-136.69"></polygon>
</g>
<!-- Feed&#45;&gt;Keys -->
<g id="edge7" class="edge">
<title>Feed-&gt;Keys</title>
<path fill="none" stroke="#000000" d="M968.1479,-109.5904C976.0446,-118.459 985.6903,-129.2919 994.3212,-138.985"></path>
<polygon fill="#000000" stroke="#000000" points="991.7086,-141.3141 1000.9726,-146.4551 996.9365,-136.6591 991.7086,-141.3141"></polygon>
</g>
</g>
</svg>
