<svg width="938pt" height="191pt" viewBox="0.00 0.00 937.81 191.00" xmlns="http://www.w3.org/2000/svg" xmlns:xlink="http://www.w3.org/1999/xlink">
<g id="graph0" class="graph" transform="scale(1 1) rotate(0) translate(4 187)">
<title>hierarchy</title>
<polygon fill="#ffffff" stroke="transparent" points="-4,4 -4,-187 933.8072,-187 933.8072,4 -4,4"></polygon>
<!-- SSBBrowserCore -->
<g id="node1" class="node">
<title>SSBBrowserCore</title>
<polygon fill="none" stroke="#000000" points="400.2714,-146.5 400.2714,-182.5 515.8086,-182.5 515.8086,-146.5 400.2714,-146.5"></polygon>
<text text-anchor="middle" x="458.04" y="-160.3" font-family="Times,serif" font-size="14.00" fill="#000000">SSBBrowserCore</text>
</g>
<!-- Network -->
<g id="node6" class="node">
<title>Network</title>
<polygon fill="none" stroke="#000000" points="67.5505,-73.5 67.5505,-109.5 132.5295,-109.5 132.5295,-73.5 67.5505,-73.5"></polygon>
<text text-anchor="middle" x="100.04" y="-87.3" font-family="Times,serif" font-size="14.00" fill="#000000">Network</text>
</g>
<!-- SSBBrowserCore&#45;&gt;Network -->
<g id="edge1" class="edge">
<title>SSBBrowserCore-&gt;Network</title>
<path fill="none" stroke="#000000" d="M400.1232,-152.6902C328.1393,-138.0119 206.9738,-113.3049 142.8417,-100.2277"></path>
<polygon fill="#000000" stroke="#000000" points="143.1773,-96.7242 132.6796,-98.1556 141.7787,-103.5831 143.1773,-96.7242"></polygon>
</g>
<!-- Connections -->
<g id="node7" class="node">
<title>Connections</title>
<polygon fill="none" stroke="#000000" points="220.0442,-73.5 220.0442,-109.5 306.0358,-109.5 306.0358,-73.5 220.0442,-73.5"></polygon>
<text text-anchor="middle" x="263.04" y="-87.3" font-family="Times,serif" font-size="14.00" fill="#000000">Connections</text>
</g>
<!-- SSBBrowserCore&#45;&gt;Connections -->
<g id="edge2" class="edge">
<title>SSBBrowserCore-&gt;Connections</title>
<path fill="none" stroke="#000000" d="M409.8377,-146.4551C381.263,-135.7578 345.022,-122.1907 315.699,-111.2134"></path>
<polygon fill="#000000" stroke="#000000" points="316.6334,-107.826 306.041,-107.5978 314.1792,-114.3817 316.6334,-107.826"></polygon>
</g>
<!-- Sync -->
<g id="node8" class="node">
<title>Sync</title>
<polygon fill="none" stroke="#000000" points="431.04,-73.5 431.04,-109.5 485.04,-109.5 485.04,-73.5 431.04,-73.5"></polygon>
<text text-anchor="middle" x="458.0386" y="-87.3" font-family="Times,serif" font-size="14.00" fill="#000000">Sync</text>
</g>
<!-- SSBBrowserCore&#45;&gt;Sync -->
<g id="edge3" class="edge">
<title>SSBBrowserCore-&gt;Sync</title>
<path fill="none" stroke="#000000" d="M458.04,-146.4551C458.04,-138.3828 458.04,-128.6764 458.04,-119.6817"></path>
<polygon fill="#000000" stroke="#000000" points="461.5401,-119.5903 458.04,-109.5904 454.5401,-119.5904 461.5401,-119.5903"></polygon>
</g>
<!-- DB -->
<g id="node9" class="node">
<title>DB</title>
<polygon fill="none" stroke="#000000" points="625.04,-73.5 625.04,-109.5 679.04,-109.5 679.04,-73.5 625.04,-73.5"></polygon>
<text text-anchor="middle" x="651.7616" y="-87.3" font-family="Times,serif" font-size="14.00" fill="#000000">DB</text>
</g>
<!-- SSBBrowserCore&#45;&gt;DB -->
<g id="edge4" class="edge">
<title>SSBBrowserCore-&gt;DB</title>
<path fill="none" stroke="#000000" d="M505.9951,-146.4551C539.8117,-133.7302 584.4207,-116.9444 615.3991,-105.2876"></path>
<polygon fill="#000000" stroke="#000000" points="616.8204,-108.4924 624.9471,-101.6947 614.3551,-101.9409 616.8204,-108.4924"></polygon>
</g>
<!-- Feed -->
<g id="node10" class="node">
<title>Feed</title>
<polygon fill="none" stroke="#000000" points="722.04,-73.5 722.04,-109.5 776.04,-109.5 776.04,-73.5 722.04,-73.5"></polygon>
<text text-anchor="middle" x="748.6459" y="-87.3" font-family="Times,serif" font-size="14.00" fill="#000000">Feed</text>
</g>
<!-- SSBBrowserCore&#45;&gt;Feed -->
<g id="edge5" class="edge">
<title>SSBBrowserCore-&gt;Feed</title>
<path fill="none" stroke="#000000" d="M515.832,-153.8439C565.2296,-144.1764 637.9552,-128.612 700.04,-110 704.0575,-108.7956 708.218,-107.4247 712.3396,-105.9862"></path>
<polygon fill="#000000" stroke="#000000" points="713.5933,-109.2547 721.8002,-102.5542 711.206,-102.6743 713.5933,-109.2547"></polygon>
</g>
<!-- Validate -->
<g id="node2" class="node">
<title>Validate</title>
<polygon fill="none" stroke="#000000" points="666.3289,-146.5 666.3289,-182.5 729.7511,-182.5 729.7511,-146.5 666.3289,-146.5"></polygon>
<text text-anchor="middle" x="698.04" y="-160.3" font-family="Times,serif" font-size="14.00" fill="#000000">Validate</text>
</g>
<!-- Keys -->
<g id="node3" class="node">
<title>Keys</title>
<polygon fill="none" stroke="#000000" points="773.04,-146.5 773.04,-182.5 827.04,-182.5 827.04,-146.5 773.04,-146.5"></polygon>
<text text-anchor="middle" x="799.9229" y="-160.3" font-family="Times,serif" font-size="14.00" fill="#000000">Keys</text>
</g>
<!-- SecretStack -->
<g id="node4" class="node">
<title>SecretStack</title>
<polygon fill="none" stroke="#000000" points="0,-146.5 0,-182.5 82.08,-182.5 82.08,-146.5 0,-146.5"></polygon>
<text text-anchor="middle" x="41.04" y="-160.3" font-family="Times,serif" font-size="14.00" fill="#000000">SecretStack</text>
</g>
<!-- MuxRPC -->
<g id="node5" class="node">
<title>MuxRPC</title>
<polygon fill="none" stroke="#000000" points="124.5898,-146.5 124.5898,-182.5 193.4902,-182.5 193.4902,-146.5 124.5898,-146.5"></polygon>
<text text-anchor="middle" x="159.04" y="-160.3" font-family="Times,serif" font-size="14.00" fill="#000000">MuxRPC</text>
</g>
<!-- Network&#45;&gt;SecretStack -->
<g id="edge13" class="edge">
<title>Network-&gt;SecretStack</title>
<path fill="none" stroke="#000000" d="M85.419,-109.5904C78.3932,-118.2834 69.842,-128.8636 62.1282,-138.4079"></path>
<polygon fill="#000000" stroke="#000000" points="59.1881,-136.4776 55.6243,-146.4551 64.6323,-140.8777 59.1881,-136.4776"></polygon>
</g>
<!-- Network&#45;&gt;MuxRPC -->
<g id="edge14" class="edge">
<title>Network-&gt;MuxRPC</title>
<path fill="none" stroke="#000000" d="M114.661,-109.5904C121.6868,-118.2834 130.238,-128.8636 137.9518,-138.4079"></path>
<polygon fill="#000000" stroke="#000000" points="135.4477,-140.8777 144.4557,-146.4551 140.8919,-136.4776 135.4477,-140.8777"></polygon>
</g>
<!-- SHS -->
<g id="node16" class="node">
<title>SHS</title>
<polygon fill="none" stroke="#000000" points="27.04,-.5 27.04,-36.5 81.04,-36.5 81.04,-.5 27.04,-.5"></polygon>
<text text-anchor="middle" x="53.8759" y="-14.3" font-family="Times,serif" font-size="14.00" fill="#000000">SHS</text>
</g>
<!-- Network&#45;&gt;SHS -->
<g id="edge15" class="edge">
<title>Network-&gt;SHS</title>
<path fill="none" stroke="#000000" d="M88.6692,-73.4551C83.3062,-64.9441 76.7983,-54.6165 70.8785,-45.2219"></path>
<polygon fill="#000000" stroke="#000000" points="73.7318,-43.1848 65.4394,-36.5904 67.8095,-46.9167 73.7318,-43.1848"></polygon>
</g>
<!-- SSBconn -->
<g id="node14" class="node">
<title>SSBconn</title>
<polygon fill="none" stroke="#000000" points="123.9818,-.5 123.9818,-36.5 192.0982,-36.5 192.0982,-.5 123.9818,-.5"></polygon>
<text text-anchor="middle" x="158.04" y="-14.3" font-family="Times,serif" font-size="14.00" fill="#000000">SSBconn</text>
</g>
<!-- Connections&#45;&gt;SSBconn -->
<g id="edge11" class="edge">
<title>Connections-&gt;SSBconn</title>
<path fill="none" stroke="#000000" d="M237.0849,-73.4551C223.5812,-64.0667 206.8978,-52.4678 192.3435,-42.3491"></path>
<polygon fill="#000000" stroke="#000000" points="194.269,-39.425 184.0604,-36.5904 190.2731,-45.1725 194.269,-39.425"></polygon>
</g>
<!-- Rooms -->
<g id="node15" class="node">
<title>Rooms</title>
<polygon fill="none" stroke="#000000" points="235.2041,-.5 235.2041,-36.5 290.8759,-36.5 290.8759,-.5 235.2041,-.5"></polygon>
<text text-anchor="middle" x="263.04" y="-14.3" font-family="Times,serif" font-size="14.00" fill="#000000">Rooms</text>
</g>
<!-- Connections&#45;&gt;Rooms -->
<g id="edge12" class="edge">
<title>Connections-&gt;Rooms</title>
<path fill="none" stroke="#000000" d="M263.04,-73.4551C263.04,-65.3828 263.04,-55.6764 263.04,-46.6817"></path>
<polygon fill="#000000" stroke="#000000" points="266.5401,-46.5903 263.04,-36.5904 259.5401,-46.5904 266.5401,-46.5903"></polygon>
</g>
<!-- Partial -->
<g id="node17" class="node">
<title>Partial</title>
<polygon fill="none" stroke="#000000" points="334.04,-.5 334.04,-36.5 388.04,-36.5 388.04,-.5 334.04,-.5"></polygon>
<text text-anchor="middle" x="360.8121" y="-14.3" font-family="Times,serif" font-size="14.00" fill="#000000">Partial</text>
</g>
<!-- Sync&#45;&gt;Partial -->
<g id="edge16" class="edge">
<title>Sync-&gt;Partial</title>
<path fill="none" stroke="#000000" d="M434.0625,-73.4551C421.7041,-64.1545 406.4631,-52.6844 393.1074,-42.6332"></path>
<polygon fill="#000000" stroke="#000000" points="395.1726,-39.807 385.0779,-36.5904 390.9634,-45.4001 395.1726,-39.807"></polygon>
</g>
<!-- EBT -->
<g id="node18" class="node">
<title>EBT</title>
<polygon fill="none" stroke="#000000" points="431.04,-.5 431.04,-36.5 485.04,-36.5 485.04,-.5 431.04,-.5"></polygon>
<text text-anchor="middle" x="457.7609" y="-14.3" font-family="Times,serif" font-size="14.00" fill="#000000">EBT</text>
</g>
<!-- Sync&#45;&gt;EBT -->
<g id="edge17" class="edge">
<title>Sync-&gt;EBT</title>
<path fill="none" stroke="#000000" d="M458.04,-73.4551C458.04,-65.3828 458.04,-55.6764 458.04,-46.6817"></path>
<polygon fill="#000000" stroke="#000000" points="461.5401,-46.5903 458.04,-36.5904 454.5401,-46.5904 461.5401,-46.5903"></polygon>
</g>
<!-- Blobs -->
<g id="node19" class="node">
<title>Blobs</title>
<polygon fill="none" stroke="#000000" points="528.04,-.5 528.04,-36.5 582.04,-36.5 582.04,-.5 528.04,-.5"></polygon>
<text text-anchor="middle" x="554.8759" y="-14.3" font-family="Times,serif" font-size="14.00" fill="#000000">Blobs</text>
</g>
<!-- Sync&#45;&gt;Blobs -->
<g id="edge18" class="edge">
<title>Sync-&gt;Blobs</title>
<path fill="none" stroke="#000000" d="M482.0175,-73.4551C494.3759,-64.1545 509.6169,-52.6844 522.9726,-42.6332"></path>
<polygon fill="#000000" stroke="#000000" points="525.1166,-45.4001 531.0021,-36.5904 520.9074,-39.807 525.1166,-45.4001"></polygon>
</g>
<!-- JITDB -->
<g id="node11" class="node">
<title>JITDB</title>
<polygon fill="none" stroke="#000000" points="624.9895,-.5 624.9895,-36.5 679.0905,-36.5 679.0905,-.5 624.9895,-.5"></polygon>
<text text-anchor="middle" x="652.04" y="-14.3" font-family="Times,serif" font-size="14.00" fill="#000000">JITDB</text>
</g>
<!-- DB&#45;&gt;JITDB -->
<g id="edge8" class="edge">
<title>DB-&gt;JITDB</title>
<path fill="none" stroke="#000000" d="M652.04,-73.4551C652.04,-65.3828 652.04,-55.6764 652.04,-46.6817"></path>
<polygon fill="#000000" stroke="#000000" points="655.5401,-46.5903 652.04,-36.5904 648.5401,-46.5904 655.5401,-46.5903"></polygon>
</g>
<!-- AsyncFlumelog -->
<g id="node12" class="node">
<title>AsyncFlumelog</title>
<polygon fill="none" stroke="#000000" points="722.3226,-.5 722.3226,-36.5 827.7574,-36.5 827.7574,-.5 722.3226,-.5"></polygon>
<text text-anchor="middle" x="775.04" y="-14.3" font-family="Times,serif" font-size="14.00" fill="#000000">AsyncFlumelog</text>
</g>
<!-- DB&#45;&gt;AsyncFlumelog -->
<g id="edge9" class="edge">
<title>DB-&gt;AsyncFlumelog</title>
<path fill="none" stroke="#000000" d="M679.3377,-75.2989C695.8813,-65.4803 717.2666,-52.7883 735.6244,-41.893"></path>
<polygon fill="#000000" stroke="#000000" points="737.5456,-44.8228 744.3588,-36.7092 733.9729,-38.8032 737.5456,-44.8228"></polygon>
</g>
<!-- Indexes -->
<g id="node13" class="node">
<title>Indexes</title>
<polygon fill="none" stroke="#000000" points="870.2728,-.5 870.2728,-36.5 929.8072,-36.5 929.8072,-.5 870.2728,-.5"></polygon>
<text text-anchor="middle" x="900.04" y="-14.3" font-family="Times,serif" font-size="14.00" fill="#000000">Indexes</text>
</g>
<!-- DB&#45;&gt;Indexes -->
<g id="edge10" class="edge">
<title>DB-&gt;Indexes</title>
<path fill="none" stroke="#000000" d="M679.2362,-80.3086C685.9745,-77.733 693.2197,-75.1282 700.04,-73 765.075,-52.7062 783.8065,-56.6461 849.04,-37 852.7883,-35.8711 856.6639,-34.6212 860.5265,-33.3192"></path>
<polygon fill="#000000" stroke="#000000" points="861.7273,-36.6073 870.0215,-30.0151 859.4267,-29.9961 861.7273,-36.6073"></polygon>
</g>
<!-- Feed&#45;&gt;Validate -->
<g id="edge6" class="edge">
<title>Feed-&gt;Validate</title>
<path fill="none" stroke="#000000" d="M736.4015,-109.5904C730.3897,-118.1955 723.0858,-128.6501 716.471,-138.1183"></path>
<polygon fill="#000000" stroke="#000000" points="713.5047,-136.2529 710.6467,-146.4551 719.243,-140.2619 713.5047,-136.2529"></polygon>
</g>
<!-- Feed&#45;&gt;Keys -->
<g id="edge7" class="edge">
<title>Feed-&gt;Keys</title>
<path fill="none" stroke="#000000" d="M761.6785,-109.5904C767.6903,-118.1955 774.9942,-128.6501 781.609,-138.1183"></path>
<polygon fill="#000000" stroke="#000000" points="778.837,-140.2619 787.4333,-146.4551 784.5753,-136.2529 778.837,-140.2619"></polygon>
</g>
</g>
</svg>
