<svg width="1040pt" height="191pt" viewBox="0.00 0.00 1039.90 191.00" xmlns="http://www.w3.org/2000/svg" xmlns:xlink="http://www.w3.org/1999/xlink">
<g id="graph0" class="graph" transform="scale(1 1) rotate(0) translate(4 187)">
<title>hierarchy</title>
<polygon fill="#ffffff" stroke="transparent" points="-4,4 -4,-187 1035.9047,-187 1035.9047,4 -4,4"></polygon>
<!-- SSBBrowserCore -->
<g id="node1" class="node">
<title>SSBBrowserCore</title>
<polygon fill="none" stroke="#000000" points="460.8177,-146.5 460.8177,-182.5 576.3549,-182.5 576.3549,-146.5 460.8177,-146.5"></polygon>
<text text-anchor="middle" x="518.5863" y="-160.3" font-family="Times,serif" font-size="14.00" fill="#000000">SSBBrowserCore</text>
</g>
<!-- Network -->
<g id="node6" class="node">
<title>Network</title>
<ellipse fill="#d3d3d3" stroke="#000000" cx="102.5863" cy="-91.5" rx="44.6434" ry="18"></ellipse>
<text text-anchor="middle" x="102.5863" y="-87.3" font-family="Times,serif" font-size="14.00" fill="#000000">Network</text>
</g>
<!-- SSBBrowserCore&#45;&gt;Network -->
<g id="edge1" class="edge">
<title>SSBBrowserCore-&gt;Network</title>
<path fill="none" stroke="#000000" d="M460.7433,-154.3497C379.232,-140.046 231.845,-114.1824 153.9837,-100.5193"></path>
<polygon fill="#000000" stroke="#000000" points="154.3835,-97.036 143.929,-98.7549 153.1735,-103.9307 154.3835,-97.036"></polygon>
</g>
<!-- Connections -->
<g id="node7" class="node">
<title>Connections</title>
<ellipse fill="#d3d3d3" stroke="#000000" cx="295.5863" cy="-91.5" rx="59.1314" ry="18"></ellipse>
<text text-anchor="middle" x="295.5863" y="-87.3" font-family="Times,serif" font-size="14.00" fill="#000000">Connections</text>
</g>
<!-- SSBBrowserCore&#45;&gt;Connections -->
<g id="edge2" class="edge">
<title>SSBBrowserCore-&gt;Connections</title>
<path fill="none" stroke="#000000" d="M463.4627,-146.4551C427.3872,-134.6456 380.6267,-119.3383 345.6218,-107.8793"></path>
<polygon fill="#000000" stroke="#000000" points="346.6716,-104.5403 336.079,-104.7555 344.4938,-111.1929 346.6716,-104.5403"></polygon>
</g>
<!-- Sync -->
<g id="node8" class="node">
<title>Sync</title>
<ellipse fill="#d3d3d3" stroke="#000000" cx="518.5863" cy="-91.5" rx="30.1977" ry="18"></ellipse>
<text text-anchor="middle" x="518.5863" y="-87.3" font-family="Times,serif" font-size="14.00" fill="#000000">Sync</text>
</g>
<!-- SSBBrowserCore&#45;&gt;Sync -->
<g id="edge3" class="edge">
<title>SSBBrowserCore-&gt;Sync</title>
<path fill="none" stroke="#000000" d="M518.5863,-146.4551C518.5863,-138.3828 518.5863,-128.6764 518.5863,-119.6817"></path>
<polygon fill="#000000" stroke="#000000" points="522.0864,-119.5903 518.5863,-109.5904 515.0864,-119.5904 522.0864,-119.5903"></polygon>
</g>
<!-- Feed -->
<g id="node9" class="node">
<title>Feed</title>
<ellipse fill="#d3d3d3" stroke="#000000" cx="821.5863" cy="-91.5" rx="29.6147" ry="18"></ellipse>
<text text-anchor="middle" x="821.5863" y="-87.3" font-family="Times,serif" font-size="14.00" fill="#000000">Feed</text>
</g>
<!-- SSBBrowserCore&#45;&gt;Feed -->
<g id="edge4" class="edge">
<title>SSBBrowserCore-&gt;Feed</title>
<path fill="none" stroke="#000000" d="M576.4345,-154.2916C627.8704,-144.671 704.8851,-128.9273 770.5863,-110 775.9035,-108.4682 781.4663,-106.6651 786.8817,-104.796"></path>
<polygon fill="#000000" stroke="#000000" points="788.1438,-108.0619 796.3857,-101.4045 785.7911,-101.4691 788.1438,-108.0619"></polygon>
</g>
<!-- SSBDB2 -->
<g id="node10" class="node">
<title>SSBDB2</title>
<polygon fill="none" stroke="#000000" points="681.9138,-73.5 681.9138,-109.5 749.2588,-109.5 749.2588,-73.5 681.9138,-73.5"></polygon>
<text text-anchor="middle" x="715.5863" y="-87.3" font-family="Times,serif" font-size="14.00" fill="#000000">SSBDB2</text>
</g>
<!-- SSBBrowserCore&#45;&gt;SSBDB2 -->
<g id="edge5" class="edge">
<title>SSBBrowserCore-&gt;SSBDB2</title>
<path fill="none" stroke="#000000" d="M567.2829,-146.4551C599.3606,-134.5684 641.0014,-119.1381 671.9896,-107.6551"></path>
<polygon fill="#000000" stroke="#000000" points="673.49,-110.8318 681.6507,-104.0751 671.0576,-104.2679 673.49,-110.8318"></polygon>
</g>
<!-- Validate -->
<g id="node2" class="node">
<title>Validate</title>
<polygon fill="none" stroke="#000000" points="738.8752,-146.5 738.8752,-182.5 802.2974,-182.5 802.2974,-146.5 738.8752,-146.5"></polygon>
<text text-anchor="middle" x="770.5863" y="-160.3" font-family="Times,serif" font-size="14.00" fill="#000000">Validate</text>
</g>
<!-- Keys -->
<g id="node3" class="node">
<title>Keys</title>
<polygon fill="none" stroke="#000000" points="845.5863,-146.5 845.5863,-182.5 899.5863,-182.5 899.5863,-146.5 845.5863,-146.5"></polygon>
<text text-anchor="middle" x="872.4692" y="-160.3" font-family="Times,serif" font-size="14.00" fill="#000000">Keys</text>
</g>
<!-- SecretStack -->
<g id="node4" class="node">
<title>SecretStack</title>
<polygon fill="none" stroke="#000000" points="2.5463,-146.5 2.5463,-182.5 84.6263,-182.5 84.6263,-146.5 2.5463,-146.5"></polygon>
<text text-anchor="middle" x="43.5863" y="-160.3" font-family="Times,serif" font-size="14.00" fill="#000000">SecretStack</text>
</g>
<!-- MuxRPC -->
<g id="node5" class="node">
<title>MuxRPC</title>
<polygon fill="none" stroke="#000000" points="127.1361,-146.5 127.1361,-182.5 196.0365,-182.5 196.0365,-146.5 127.1361,-146.5"></polygon>
<text text-anchor="middle" x="161.5863" y="-160.3" font-family="Times,serif" font-size="14.00" fill="#000000">MuxRPC</text>
</g>
<!-- Network&#45;&gt;SecretStack -->
<g id="edge10" class="edge">
<title>Network-&gt;SecretStack</title>
<path fill="none" stroke="#000000" d="M88.5761,-108.8347C81.4132,-117.6973 72.5494,-128.6643 64.5884,-138.5144"></path>
<polygon fill="#000000" stroke="#000000" points="61.7344,-136.4776 58.1706,-146.4551 67.1786,-140.8777 61.7344,-136.4776"></polygon>
</g>
<!-- Network&#45;&gt;MuxRPC -->
<g id="edge11" class="edge">
<title>Network-&gt;MuxRPC</title>
<path fill="none" stroke="#000000" d="M116.5965,-108.8347C123.7594,-117.6973 132.6232,-128.6643 140.5842,-138.5144"></path>
<polygon fill="#000000" stroke="#000000" points="137.994,-140.8777 147.002,-146.4551 143.4382,-136.4776 137.994,-140.8777"></polygon>
</g>
<!-- SecretHandshake -->
<g id="node13" class="node">
<title>SecretHandshake</title>
<polygon fill="none" stroke="#000000" points="0,-.5 0,-36.5 113.1726,-36.5 113.1726,-.5 0,-.5"></polygon>
<text text-anchor="middle" x="56.5863" y="-14.3" font-family="Times,serif" font-size="14.00" fill="#000000">SecretHandshake</text>
</g>
<!-- Network&#45;&gt;SecretHandshake -->
<g id="edge12" class="edge">
<title>Network-&gt;SecretHandshake</title>
<path fill="none" stroke="#000000" d="M91.451,-73.8287C86.0508,-65.2589 79.449,-54.7821 73.4485,-45.2597"></path>
<polygon fill="#000000" stroke="#000000" points="76.231,-43.1101 67.9386,-36.5157 70.3087,-46.842 76.231,-43.1101"></polygon>
</g>
<!-- SSBconn -->
<g id="node11" class="node">
<title>SSBconn</title>
<polygon fill="none" stroke="#000000" points="156.5281,-.5 156.5281,-36.5 224.6445,-36.5 224.6445,-.5 156.5281,-.5"></polygon>
<text text-anchor="middle" x="190.5863" y="-14.3" font-family="Times,serif" font-size="14.00" fill="#000000">SSBconn</text>
</g>
<!-- Connections&#45;&gt;SSBconn -->
<g id="edge8" class="edge">
<title>Connections-&gt;SSBconn</title>
<path fill="none" stroke="#000000" d="M271.7602,-74.9352C257.8739,-65.2809 240.1269,-52.9425 224.7703,-42.266"></path>
<polygon fill="#000000" stroke="#000000" points="226.7331,-39.3679 216.5245,-36.5332 222.7372,-45.1154 226.7331,-39.3679"></polygon>
</g>
<!-- Rooms -->
<g id="node12" class="node">
<title>Rooms</title>
<polygon fill="none" stroke="#000000" points="267.7504,-.5 267.7504,-36.5 323.4222,-36.5 323.4222,-.5 267.7504,-.5"></polygon>
<text text-anchor="middle" x="295.5863" y="-14.3" font-family="Times,serif" font-size="14.00" fill="#000000">Rooms</text>
</g>
<!-- Connections&#45;&gt;Rooms -->
<g id="edge9" class="edge">
<title>Connections-&gt;Rooms</title>
<path fill="none" stroke="#000000" d="M295.5863,-73.4551C295.5863,-65.3828 295.5863,-55.6764 295.5863,-46.6817"></path>
<polygon fill="#000000" stroke="#000000" points="299.0864,-46.5903 295.5863,-36.5904 292.0864,-46.5904 299.0864,-46.5903"></polygon>
</g>
<!-- FeedSyncer -->
<g id="node14" class="node">
<title>FeedSyncer</title>
<polygon fill="none" stroke="#000000" points="366.5442,-.5 366.5442,-36.5 448.6284,-36.5 448.6284,-.5 366.5442,-.5"></polygon>
<text text-anchor="middle" x="407.5863" y="-14.3" font-family="Times,serif" font-size="14.00" fill="#000000">FeedSyncer</text>
</g>
<!-- Sync&#45;&gt;FeedSyncer -->
<g id="edge13" class="edge">
<title>Sync-&gt;FeedSyncer</title>
<path fill="none" stroke="#000000" d="M498.2272,-78.1107C483.0595,-68.1355 461.9433,-54.2483 443.9079,-42.3872"></path>
<polygon fill="#000000" stroke="#000000" points="445.6195,-39.3238 435.3412,-36.7532 441.7731,-45.1724 445.6195,-39.3238"></polygon>
</g>
<!-- EBT -->
<g id="node15" class="node">
<title>EBT</title>
<polygon fill="none" stroke="#000000" points="491.5863,-.5 491.5863,-36.5 545.5863,-36.5 545.5863,-.5 491.5863,-.5"></polygon>
<text text-anchor="middle" x="518.3072" y="-14.3" font-family="Times,serif" font-size="14.00" fill="#000000">EBT</text>
</g>
<!-- Sync&#45;&gt;EBT -->
<g id="edge14" class="edge">
<title>Sync-&gt;EBT</title>
<path fill="none" stroke="#000000" d="M518.5863,-73.4551C518.5863,-65.3828 518.5863,-55.6764 518.5863,-46.6817"></path>
<polygon fill="#000000" stroke="#000000" points="522.0864,-46.5903 518.5863,-36.5904 515.0864,-46.5904 522.0864,-46.5903"></polygon>
</g>
<!-- Blobs -->
<g id="node16" class="node">
<title>Blobs</title>
<polygon fill="none" stroke="#000000" points="588.5863,-.5 588.5863,-36.5 642.5863,-36.5 642.5863,-.5 588.5863,-.5"></polygon>
<text text-anchor="middle" x="615.4222" y="-14.3" font-family="Times,serif" font-size="14.00" fill="#000000">Blobs</text>
</g>
<!-- Sync&#45;&gt;Blobs -->
<g id="edge15" class="edge">
<title>Sync-&gt;Blobs</title>
<path fill="none" stroke="#000000" d="M537.7504,-77.0775C550.7943,-67.261 568.373,-54.0317 583.5242,-42.6292"></path>
<polygon fill="#000000" stroke="#000000" points="585.7622,-45.3254 591.6477,-36.5157 581.5529,-39.7323 585.7622,-45.3254"></polygon>
</g>
<!-- Feed&#45;&gt;Validate -->
<g id="edge6" class="edge">
<title>Feed-&gt;Validate</title>
<path fill="none" stroke="#000000" d="M809.8238,-108.3365C803.6603,-117.1587 795.9704,-128.1658 789.0356,-138.0922"></path>
<polygon fill="#000000" stroke="#000000" points="786.051,-136.2529 783.193,-146.4551 791.7893,-140.2619 786.051,-136.2529"></polygon>
</g>
<!-- Feed&#45;&gt;Keys -->
<g id="edge7" class="edge">
<title>Feed-&gt;Keys</title>
<path fill="none" stroke="#000000" d="M833.3488,-108.3365C839.5123,-117.1587 847.2022,-128.1658 854.137,-138.0922"></path>
<polygon fill="#000000" stroke="#000000" points="851.3833,-140.2619 859.9796,-146.4551 857.1216,-136.2529 851.3833,-140.2619"></polygon>
</g>
<!-- Indexes -->
<g id="node17" class="node">
<title>Indexes</title>
<polygon fill="none" stroke="#000000" points="685.8191,-.5 685.8191,-36.5 745.3535,-36.5 745.3535,-.5 685.8191,-.5"></polygon>
<text text-anchor="middle" x="715.5863" y="-14.3" font-family="Times,serif" font-size="14.00" fill="#000000">Indexes</text>
</g>
<!-- SSBDB2&#45;&gt;Indexes -->
<g id="edge16" class="edge">
<title>SSBDB2-&gt;Indexes</title>
<path fill="none" stroke="#000000" d="M715.5863,-73.4551C715.5863,-65.3828 715.5863,-55.6764 715.5863,-46.6817"></path>
<polygon fill="#000000" stroke="#000000" points="719.0864,-46.5903 715.5863,-36.5904 712.0864,-46.5904 719.0864,-46.5903"></polygon>
</g>
<!-- JITDB -->
<g id="node18" class="node">
<title>JITDB</title>
<polygon fill="none" stroke="#000000" points="788.5358,-.5 788.5358,-36.5 842.6368,-36.5 842.6368,-.5 788.5358,-.5"></polygon>
<text text-anchor="middle" x="815.5863" y="-14.3" font-family="Times,serif" font-size="14.00" fill="#000000">JITDB</text>
</g>
<!-- SSBDB2&#45;&gt;JITDB -->
<g id="edge17" class="edge">
<title>SSBDB2-&gt;JITDB</title>
<path fill="none" stroke="#000000" d="M740.3054,-73.4551C753.046,-64.1545 768.7584,-52.6844 782.5271,-42.6332"></path>
<polygon fill="#000000" stroke="#000000" points="784.7918,-45.3134 790.805,-36.5904 780.6644,-39.6596 784.7918,-45.3134"></polygon>
</g>
<!-- AsyncAppendOnlyLog -->
<g id="node19" class="node">
<title>AsyncAppendOnlyLog</title>
<polygon fill="none" stroke="#000000" points="885.2679,-.5 885.2679,-36.5 1031.9047,-36.5 1031.9047,-.5 885.2679,-.5"></polygon>
<text text-anchor="middle" x="958.5863" y="-14.3" font-family="Times,serif" font-size="14.00" fill="#000000">AsyncAppendOnlyLog</text>
</g>
<!-- SSBDB2&#45;&gt;AsyncAppendOnlyLog -->
<g id="edge18" class="edge">
<title>SSBDB2-&gt;AsyncAppendOnlyLog</title>
<path fill="none" stroke="#000000" d="M749.5466,-79.8269C756.4897,-77.5108 763.7601,-75.1364 770.5863,-73 807.6309,-61.406 849.0458,-49.3081 883.5558,-39.4641"></path>
<polygon fill="#000000" stroke="#000000" points="884.9021,-42.7201 893.5629,-36.6175 882.9868,-35.9872 884.9021,-42.7201"></polygon>
</g>
</g>
</svg>
